<svg width="306" height="177" viewBox="0 0 306 177" fill="none" xmlns="http://www.w3.org/2000/svg">
<rect x="3.9913" y="3.9913" width="298.017" height="168.965" rx="37.9174" fill="white" stroke="url(#paint0_linear_3801_21707)" stroke-width="7.98261"/>
<path d="M194.088 130.305C194.397 130.177 194.716 130.033 195.046 129.874C195.387 129.703 195.717 129.522 196.036 129.331C196.355 129.129 196.658 128.921 196.946 128.708C197.244 128.485 197.51 128.25 197.744 128.006H199.404V139.07H197.026V131.103C196.706 131.316 196.35 131.513 195.956 131.694C195.562 131.864 195.179 132.013 194.807 132.141L194.088 130.305ZM212.378 134.935C212.378 134.2 212.213 133.615 211.883 133.178C211.553 132.731 211.063 132.508 210.414 132.508C210.201 132.508 210.004 132.519 209.823 132.54C209.642 132.55 209.493 132.566 209.376 132.588V136.882C209.525 136.978 209.717 137.058 209.951 137.122C210.196 137.186 210.441 137.218 210.685 137.218C211.814 137.218 212.378 136.457 212.378 134.935ZM214.804 134.871C214.804 135.52 214.725 136.111 214.565 136.643C214.405 137.175 214.171 137.633 213.862 138.016C213.554 138.399 213.171 138.697 212.713 138.91C212.255 139.123 211.728 139.229 211.132 139.229C210.802 139.229 210.494 139.197 210.206 139.133C209.919 139.07 209.642 138.979 209.376 138.862V142.023H206.997V130.959C207.21 130.895 207.455 130.837 207.732 130.784C208.009 130.72 208.296 130.667 208.594 130.624C208.903 130.581 209.211 130.549 209.52 130.528C209.839 130.496 210.143 130.48 210.43 130.48C211.122 130.48 211.739 130.587 212.282 130.8C212.825 131.002 213.282 131.295 213.655 131.678C214.027 132.05 214.31 132.508 214.501 133.051C214.703 133.593 214.804 134.2 214.804 134.871ZM224.088 130.672C223.61 132.29 223.109 133.806 222.588 135.222C222.066 136.638 221.497 138.011 220.879 139.341C220.656 139.82 220.432 140.224 220.209 140.554C219.985 140.895 219.741 141.172 219.475 141.385C219.208 141.608 218.905 141.768 218.564 141.863C218.235 141.97 217.846 142.023 217.399 142.023C217.027 142.023 216.681 141.986 216.361 141.911C216.053 141.848 215.797 141.773 215.595 141.688L216.01 139.788C216.255 139.873 216.473 139.932 216.665 139.964C216.856 139.996 217.058 140.012 217.271 140.012C217.697 140.012 218.022 139.894 218.245 139.66C218.479 139.437 218.676 139.123 218.836 138.718C218.293 137.654 217.75 136.462 217.207 135.142C216.665 133.812 216.154 132.322 215.675 130.672H218.197C218.304 131.087 218.426 131.539 218.564 132.029C218.714 132.508 218.868 132.997 219.027 133.498C219.187 133.987 219.347 134.466 219.506 134.935C219.677 135.403 219.836 135.829 219.985 136.212C220.124 135.829 220.267 135.403 220.416 134.935C220.565 134.466 220.709 133.987 220.848 133.498C220.997 132.997 221.135 132.508 221.263 132.029C221.401 131.539 221.523 131.087 221.63 130.672H224.088ZM232.692 128.708C232.298 128.793 231.925 128.852 231.574 128.884C231.223 128.916 230.861 128.964 230.489 129.027C230.169 129.081 229.85 129.16 229.531 129.267C229.211 129.373 228.913 129.522 228.637 129.714C228.37 129.895 228.136 130.129 227.934 130.416C227.732 130.693 227.588 131.039 227.503 131.454C228.195 131.124 228.865 130.959 229.515 130.959C230.026 130.959 230.499 131.044 230.936 131.215C231.372 131.385 231.75 131.64 232.069 131.981C232.399 132.322 232.654 132.747 232.835 133.258C233.027 133.758 233.123 134.344 233.123 135.014C233.123 135.738 233.016 136.366 232.803 136.898C232.591 137.43 232.298 137.877 231.925 138.239C231.564 138.591 231.138 138.857 230.648 139.038C230.169 139.208 229.653 139.293 229.1 139.293C227.62 139.293 226.561 138.846 225.922 137.952C225.284 137.047 224.965 135.722 224.965 133.977C224.965 132.827 225.076 131.853 225.3 131.055C225.523 130.246 225.859 129.576 226.306 129.043C226.753 128.501 227.306 128.075 227.966 127.766C228.626 127.458 229.392 127.213 230.265 127.032C230.616 126.957 230.967 126.904 231.319 126.872C231.681 126.83 232.048 126.766 232.42 126.681L232.692 128.708ZM227.455 133.402C227.434 133.551 227.418 133.721 227.407 133.913C227.407 134.104 227.407 134.275 227.407 134.424C227.407 135.36 227.535 136.068 227.79 136.547C228.056 137.026 228.498 137.265 229.116 137.265C229.637 137.265 230.036 137.063 230.313 136.659C230.59 136.254 230.728 135.712 230.728 135.03C230.728 134.764 230.696 134.509 230.632 134.264C230.568 134.009 230.467 133.785 230.329 133.593C230.191 133.402 230.02 133.248 229.818 133.131C229.616 133.013 229.376 132.955 229.1 132.955C228.823 132.955 228.53 132.987 228.221 133.051C227.923 133.115 227.668 133.232 227.455 133.402ZM238.72 132.62C238.709 132.928 238.693 133.258 238.672 133.609C238.661 133.95 238.635 134.296 238.592 134.647C238.55 134.988 238.491 135.323 238.417 135.653C238.353 135.983 238.268 136.292 238.161 136.579C238.033 136.92 237.868 137.239 237.666 137.537C237.475 137.824 237.225 138.085 236.916 138.319C236.618 138.553 236.251 138.75 235.814 138.91C235.389 139.059 234.888 139.16 234.314 139.213L233.994 137.234C234.537 137.127 234.957 136.978 235.256 136.787C235.554 136.584 235.777 136.329 235.926 136.02C236.043 135.754 236.134 135.445 236.197 135.094C236.272 134.743 236.325 134.376 236.357 133.993C236.389 133.599 236.405 133.2 236.405 132.795C236.416 132.391 236.421 132.002 236.421 131.63V130.672H242.727V139.07H240.348V132.62H238.72ZM248.522 137.409C248.958 137.409 249.299 137.329 249.544 137.17C249.799 136.999 249.927 136.728 249.927 136.355C249.927 136.164 249.884 136.004 249.799 135.877C249.714 135.738 249.597 135.632 249.448 135.557C249.299 135.472 249.123 135.414 248.921 135.382C248.729 135.35 248.522 135.334 248.298 135.334C248.139 135.334 247.963 135.344 247.771 135.366C247.58 135.387 247.436 135.408 247.34 135.429V137.345C247.468 137.367 247.638 137.383 247.851 137.393C248.064 137.404 248.288 137.409 248.522 137.409ZM247.34 133.657C247.489 133.615 247.681 133.583 247.915 133.562C248.16 133.53 248.437 133.514 248.745 133.514C249.246 133.514 249.709 133.572 250.134 133.689C250.571 133.806 250.949 133.987 251.268 134.232C251.587 134.466 251.837 134.77 252.018 135.142C252.199 135.504 252.29 135.93 252.29 136.419C252.29 136.909 252.205 137.335 252.034 137.697C251.864 138.048 251.619 138.34 251.3 138.575C250.98 138.798 250.597 138.963 250.15 139.07C249.714 139.187 249.224 139.245 248.682 139.245C247.979 139.245 247.335 139.208 246.75 139.133C246.164 139.07 245.568 138.963 244.962 138.814V130.672H247.34V133.657Z" fill="black"/>
<path d="M148.589 95.1493H156.093V97.1449H148.589V95.1493ZM148.589 91.6529H156.093V93.6485H148.589V91.6529Z" fill="black"/>
<path d="M54.6489 130.305C54.9576 130.177 55.2769 130.033 55.6068 129.874C55.9474 129.703 56.2774 129.522 56.5967 129.331C56.916 129.129 57.2193 128.921 57.5067 128.708C57.8047 128.485 58.0708 128.25 58.305 128.006H59.9653V139.07H57.5865V131.103C57.2672 131.316 56.9107 131.513 56.5169 131.694C56.123 131.864 55.7399 132.013 55.3674 132.141L54.6489 130.305ZM74.8863 128.708C74.4925 128.793 74.12 128.852 73.7688 128.884C73.4175 128.916 73.0557 128.964 72.6831 129.027C72.3638 129.081 72.0445 129.16 71.7252 129.267C71.4059 129.373 71.1079 129.522 70.8312 129.714C70.5651 129.895 70.3309 130.129 70.1287 130.416C69.9265 130.693 69.7828 131.039 69.6976 131.454C70.3895 131.124 71.06 130.959 71.7093 130.959C72.2201 130.959 72.6938 131.044 73.1302 131.215C73.5665 131.385 73.9444 131.64 74.2637 131.981C74.5936 132.322 74.8491 132.747 75.03 133.258C75.2216 133.758 75.3174 134.344 75.3174 135.014C75.3174 135.738 75.211 136.366 74.9981 136.898C74.7852 137.43 74.4925 137.877 74.12 138.239C73.7581 138.591 73.3324 138.857 72.8428 139.038C72.3638 139.208 71.8476 139.293 71.2942 139.293C69.8147 139.293 68.7557 138.846 68.1171 137.952C67.4785 137.047 67.1592 135.722 67.1592 133.977C67.1592 132.827 67.2709 131.853 67.4944 131.055C67.718 130.246 68.0532 129.576 68.5002 129.043C68.9473 128.501 69.5007 128.075 70.1606 127.766C70.8205 127.458 71.5869 127.213 72.4596 127.032C72.8109 126.957 73.1621 126.904 73.5133 126.872C73.8752 126.83 74.2424 126.766 74.6149 126.681L74.8863 128.708ZM69.6497 133.402C69.6285 133.551 69.6125 133.721 69.6018 133.913C69.6018 134.104 69.6018 134.275 69.6018 134.424C69.6018 135.36 69.7296 136.068 69.985 136.547C70.2511 137.026 70.6928 137.265 71.3101 137.265C71.8317 137.265 72.2308 137.063 72.5075 136.659C72.7842 136.254 72.9226 135.712 72.9226 135.03C72.9226 134.764 72.8907 134.509 72.8268 134.264C72.763 134.009 72.6618 133.785 72.5235 133.593C72.3851 133.402 72.2148 133.248 72.0126 133.131C71.8104 133.013 71.5709 132.955 71.2942 132.955C71.0174 132.955 70.7247 132.987 70.4161 133.051C70.1181 133.115 69.8626 133.232 69.6497 133.402ZM85.0017 134.855C85.0017 135.515 84.9059 136.121 84.7143 136.675C84.5227 137.218 84.246 137.686 83.8841 138.08C83.5222 138.463 83.0858 138.761 82.575 138.974C82.0747 139.187 81.5106 139.293 80.8826 139.293C80.2653 139.293 79.7012 139.187 79.1903 138.974C78.6901 138.761 78.259 138.463 77.8972 138.08C77.5353 137.686 77.2532 137.218 77.051 136.675C76.8488 136.121 76.7477 135.515 76.7477 134.855C76.7477 134.195 76.8488 133.593 77.051 133.051C77.2639 132.508 77.5512 132.045 77.9131 131.662C78.2856 131.279 78.722 130.981 79.2223 130.768C79.7332 130.555 80.2866 130.448 80.8826 130.448C81.4893 130.448 82.0428 130.555 82.543 130.768C83.0539 130.981 83.4903 131.279 83.8522 131.662C84.2141 132.045 84.4961 132.508 84.6983 133.051C84.9006 133.593 85.0017 134.195 85.0017 134.855ZM82.575 134.855C82.575 134.12 82.426 133.546 82.1279 133.131C81.8406 132.705 81.4255 132.492 80.8826 132.492C80.3398 132.492 79.9194 132.705 79.6214 133.131C79.3234 133.546 79.1744 134.12 79.1744 134.855C79.1744 135.589 79.3234 136.175 79.6214 136.611C79.9194 137.037 80.3398 137.25 80.8826 137.25C81.4255 137.25 81.8406 137.037 82.1279 136.611C82.426 136.175 82.575 135.589 82.575 134.855ZM94.0767 139.07H91.6978V135.749H89.2232V139.07H86.8444V130.672H89.2232V133.801H91.6978V130.672H94.0767V139.07ZM103.764 130.672C103.285 132.29 102.785 133.806 102.263 135.222C101.742 136.638 101.172 138.011 100.555 139.341C100.331 139.82 100.108 140.224 99.8844 140.554C99.6609 140.895 99.4161 141.172 99.15 141.385C98.8839 141.608 98.5805 141.768 98.24 141.863C97.91 141.97 97.5215 142.023 97.0745 142.023C96.702 142.023 96.3561 141.986 96.0368 141.911C95.7281 141.848 95.4727 141.773 95.2704 141.688L95.6855 139.788C95.9303 139.873 96.1485 139.932 96.3401 139.964C96.5317 139.996 96.7339 140.012 96.9468 140.012C97.3725 140.012 97.6971 139.894 97.9207 139.66C98.1548 139.437 98.3517 139.123 98.5114 138.718C97.9685 137.654 97.4257 136.462 96.8829 135.142C96.3401 133.812 95.8292 132.322 95.3503 130.672H97.8728C97.9792 131.087 98.1016 131.539 98.24 132.029C98.389 132.508 98.5433 132.997 98.7029 133.498C98.8626 133.987 99.0223 134.466 99.1819 134.935C99.3522 135.403 99.5119 135.829 99.6609 136.212C99.7992 135.829 99.9429 135.403 100.092 134.935C100.241 134.466 100.385 133.987 100.523 133.498C100.672 132.997 100.81 132.508 100.938 132.029C101.076 131.539 101.199 131.087 101.305 130.672H103.764ZM104.64 134.871C104.64 134.264 104.736 133.695 104.927 133.162C105.13 132.62 105.417 132.151 105.79 131.757C106.162 131.353 106.614 131.034 107.147 130.8C107.679 130.565 108.285 130.448 108.967 130.448C109.414 130.448 109.823 130.491 110.196 130.576C110.568 130.651 110.93 130.762 111.282 130.911L110.787 132.811C110.563 132.726 110.318 132.652 110.052 132.588C109.786 132.524 109.488 132.492 109.158 132.492C108.456 132.492 107.929 132.71 107.578 133.146C107.237 133.583 107.067 134.158 107.067 134.871C107.067 135.626 107.226 136.212 107.546 136.627C107.876 137.042 108.445 137.25 109.254 137.25C109.541 137.25 109.85 137.223 110.18 137.17C110.51 137.116 110.813 137.031 111.09 136.914L111.425 138.862C111.148 138.979 110.803 139.08 110.387 139.165C109.972 139.251 109.515 139.293 109.014 139.293C108.248 139.293 107.588 139.181 107.035 138.958C106.481 138.724 106.024 138.41 105.662 138.016C105.311 137.622 105.05 137.159 104.879 136.627C104.72 136.084 104.64 135.499 104.64 134.871Z" fill="black"/>
<path d="M125.726 72.1845C125.726 94.7782 107.313 113.104 84.5734 113.104C61.851 113.087 43.4209 94.7782 43.4209 72.1845C43.4209 49.5908 61.851 31.2652 84.5734 31.2652C107.296 31.2652 125.726 49.5908 125.726 72.1845Z" fill="#D2763E"/>
<path d="M121.536 72.1845C121.536 94.7782 103.123 113.104 80.3836 113.104C57.6781 113.087 39.248 94.7782 39.248 72.1845C39.248 49.5908 57.6781 31.2652 80.4006 31.2652C103.123 31.2652 121.536 49.5908 121.536 72.1845Z" fill="#FECB50"/>
<path d="M111.81 72.1845C111.81 89.4262 97.7406 103.416 80.4007 103.416C63.0437 103.416 48.9912 89.4262 48.9912 72.1845C48.9912 54.9429 63.0437 40.9361 80.4007 40.9361C97.7406 40.9361 111.81 54.9259 111.81 72.1845Z" fill="#BF6718"/>
<path d="M111.81 72.1846C111.81 88.4608 98.5412 101.655 82.1722 101.655C65.8032 101.655 52.5342 88.4608 52.5342 72.1846C52.5342 55.9083 65.8032 42.7145 82.1722 42.7145C98.5412 42.6976 111.81 55.8913 111.81 72.1846Z" fill="#F6A33E"/>
<path d="M50.0302 80.2295L41.4794 85.48C40.0316 81.3135 39.248 76.8422 39.248 72.1676C39.248 71.8119 39.248 71.4732 39.2651 71.1345L49.9109 64.5799C49.2977 67.0188 48.9741 69.5424 48.9741 72.1507C48.9741 74.9622 49.3488 77.6552 50.0302 80.2295Z" fill="#FFF151"/>
<path d="M109.766 43.5274L101.215 48.7778C97.2976 45.3227 92.4942 42.833 87.2139 41.6644L97.8767 35.1268C102.339 37.21 106.359 40.0723 109.766 43.5274Z" fill="#FFF151"/>
<path d="M55.1569 90.7981L46.8616 95.8961C45.5671 94.0838 44.4088 92.17 43.4209 90.1545L51.7502 85.0396C52.687 87.072 53.8283 89.0028 55.1569 90.7981Z" fill="#BF6718"/>
<path d="M116.732 52.9612L108.437 58.0762C107.415 56.0607 106.189 54.1807 104.758 52.4701L113.087 47.3552C114.45 49.1166 115.659 50.9796 116.732 52.9612Z" fill="#BF6718"/>
<path d="M73.5877 102.671L62.9248 109.225C59.2456 107.515 55.89 105.279 52.9092 102.62L61.6473 97.251C65.1391 99.8254 69.176 101.705 73.5877 102.671Z" fill="#F69F1D"/>
<path d="M121.536 72.1676C121.536 72.5233 121.536 72.862 121.519 73.2008L110.805 79.7892C111.452 77.3503 111.81 74.7928 111.81 72.1676C111.81 70.3046 111.639 68.4923 111.299 66.714L120.071 61.3281C121.025 64.7832 121.536 68.4246 121.536 72.1676Z" fill="#F69F1D"/>
<path d="M79.8049 51.5894C79.0895 51.5385 78.9703 51.6402 78.9873 52.3515C78.9873 54.4009 79.0044 56.4502 79.0044 58.4826C79.0044 58.8383 78.9873 59.177 78.9533 59.5327C78.9192 59.8715 78.7148 60.0747 78.3741 60.1424C78.1868 60.1763 77.9994 60.1763 77.812 60.1763C76.6027 60.1763 76.4494 60.0239 76.4494 58.8383C76.4494 56.789 76.4494 54.7396 76.4494 52.7072C76.4494 51.6402 76.4153 51.6232 75.3422 51.6063C74.729 51.5894 74.6268 51.691 74.6268 52.3007C74.6268 54.5025 74.6438 56.6873 74.6438 58.8891C74.6438 60.007 74.4394 60.2102 73.3152 60.1933C72.2932 60.1933 72.1059 60.007 72.1059 58.9907C72.1059 56.9075 72.1059 54.8243 72.1059 52.7411C72.1059 52.5039 72.0718 52.2838 72.0548 52.0467C72.0377 51.8095 71.9015 51.6571 71.663 51.6402C71.3905 51.6063 71.135 51.5894 70.8624 51.6063C70.2833 51.6063 70.2152 51.691 70.2152 52.2499C70.2152 53.5202 70.2152 54.7904 70.2152 56.0437C70.2152 56.1962 70.1811 56.3486 70.1641 56.4841C70.1641 57.7205 70.1641 58.9569 70.1641 60.1763C70.1811 60.3287 70.1981 60.4981 70.2152 60.6505C70.2492 61.4635 70.2152 62.2765 70.3003 63.0894C70.4536 64.5968 71.5438 65.8332 73.0597 65.9518C74.6949 66.0873 76.3472 66.0703 77.9824 65.9348C79.1406 65.8501 80.0264 65.1049 80.4352 63.9871C80.6396 63.4282 80.7418 62.7846 80.7418 62.1918C80.7758 58.9907 80.7588 55.7727 80.7588 52.5717C80.7418 51.691 80.7077 51.6571 79.8049 51.5894Z" fill="#C77000"/>
<path d="M89.4624 87.3768C88.9514 87.5293 88.4574 87.6986 87.9634 87.8341C87.4354 87.9696 86.8903 88.1051 86.3623 88.1729C85.8854 88.2406 85.4084 88.2067 84.9315 88.2576C84.2502 88.3253 83.8584 88.7318 83.8584 89.3923C83.8584 89.9682 83.9265 90.544 83.9947 91.1029C84.0969 91.8482 84.5908 92.5595 85.3573 92.6103C85.4084 92.6103 85.4595 92.7119 85.5277 92.7627C86.4134 92.7627 87.2991 92.7627 88.2019 92.7627C88.2871 92.7119 88.3722 92.6273 88.4744 92.6103C89.2069 92.441 89.7519 92.0514 89.9052 91.2892C89.9904 90.8489 90.0756 90.3916 90.0926 89.9343C90.1267 89.223 90.0926 88.5116 90.0756 87.8003C90.0415 87.614 89.6157 87.326 89.4624 87.3768Z" fill="#C77000"/>
<path d="M89.3947 77.2994C89.6673 77.2994 89.7524 77.1301 89.7695 76.8929C89.8035 76.351 89.8717 75.809 89.8717 75.267C89.9398 71.8966 89.9909 68.5262 90.042 65.1557C90.025 65.1557 90.0079 65.1557 89.9909 65.1557C89.9909 64.7323 89.9909 64.292 89.9909 63.8685C89.9739 60.4134 90.025 56.9414 89.7695 53.4863C89.7013 52.5209 89.4629 52.1821 88.5431 51.8942C87.6062 51.6063 86.6524 51.5555 85.6985 51.7079C84.438 51.8942 83.6545 52.6225 83.2968 53.8419C82.9221 55.1122 82.888 56.4163 82.8369 57.7035C82.7347 61.0401 82.6666 64.3766 82.6155 67.7132C82.5814 70.2029 82.5474 72.7096 82.8199 75.1993C82.9391 76.2324 83.1946 76.605 84.2166 76.8421C85.9199 77.2317 87.6573 77.2486 89.3947 77.2994Z" fill="#C77000"/>
<path d="M78.9026 68.2044C78.9026 67.9503 78.8685 67.6963 78.8345 67.4422C78.7834 67.0865 78.579 66.9172 78.2213 66.9002C77.8295 66.8833 77.4207 66.8494 77.0289 66.8494C75.5641 66.8664 74.0822 66.8833 72.6173 66.9341C71.9189 66.968 71.7656 67.1882 71.7656 67.8656C71.7656 69.7117 71.7656 71.5579 71.7827 73.404C71.7827 73.9968 71.8338 74.5895 71.8678 75.1823C71.8849 75.4872 72.0382 75.6566 72.3618 75.7074C73.1624 75.8429 73.9459 75.9953 74.7294 76.1477C75.9047 76.3679 77.0971 76.5881 78.2724 76.7913C78.8004 76.876 78.9537 76.7236 78.9537 76.1985C78.9537 74.8267 78.9537 73.4548 78.9537 72.0829C78.9367 72.0829 78.9026 72.0829 78.8856 72.0829C78.9026 70.7957 78.9196 69.5085 78.9026 68.2044Z" fill="#C77000"/>
<path d="M71.561 76.9946C71.5781 77.672 71.561 78.3495 71.561 79.0101C71.561 79.6706 71.561 80.365 71.561 81.0255C71.561 81.1272 71.5951 81.2457 71.6462 81.3473C71.8506 81.8555 72.3446 81.8555 72.7534 81.9063C73.3155 81.974 73.8946 81.9909 74.4567 81.9909C75.7172 81.974 76.9776 81.9571 78.2211 81.9232C78.4595 81.9232 78.7321 81.8385 78.9365 81.72C79.0727 81.6353 79.226 81.432 79.226 81.2796C79.2601 80.4497 79.2601 79.6367 79.226 78.8068C79.209 78.3665 79.1749 77.8922 78.7661 77.6551C78.4084 77.4349 77.9826 77.2825 77.5738 77.1809C77.0117 77.0454 76.4326 76.9776 75.8534 76.876C75.121 76.7405 74.3886 76.5881 73.6561 76.4695C73.2303 76.4018 72.7874 76.3679 72.3616 76.3171C71.9698 76.2663 71.544 76.5203 71.561 76.9946Z" fill="#C77000"/>
<path d="M71.4757 86.5639C71.4928 87.1059 71.7142 87.3091 72.2763 87.3091C73.0428 87.3261 73.7923 87.3091 74.5588 87.3091C74.5588 87.3261 74.5588 87.3599 74.5588 87.3769C75.5467 87.3261 76.5176 87.2922 77.5055 87.2075C78.4935 87.1228 79.0556 86.6825 79.2089 85.7001C79.3281 84.921 79.3281 84.108 79.3281 83.312C79.3281 82.7362 79.1578 82.6007 78.5957 82.5837C77.3863 82.5499 76.1769 82.499 74.9676 82.4652C73.9796 82.4482 73.0087 82.4482 72.0208 82.4652C71.595 82.4652 71.4757 82.5837 71.4757 83.0072C71.4417 84.1927 71.4587 85.3783 71.4757 86.5639Z" fill="#C77000"/>
<path d="M78.4257 87.9019C77.5911 87.9019 76.7394 87.9019 75.9048 87.9019C75.9048 87.9188 75.9048 87.9527 75.9048 87.9696C74.7636 87.9696 73.6223 87.9696 72.4811 87.9696C72.0212 87.9696 71.6294 88.2575 71.5783 88.6979C71.4421 89.6633 71.3569 90.6287 71.7998 91.5433C71.9531 91.8481 72.2597 92.2038 72.5833 92.2885C73.1284 92.4579 73.7416 92.4917 74.3207 92.5256C75.5982 92.5764 76.8757 92.5426 78.1362 92.3224C78.562 92.2546 79.09 91.8312 79.2093 91.4078C79.4818 90.4763 79.4988 89.5278 79.2774 88.5793C79.1241 87.9696 79.056 87.9019 78.4257 87.9019Z" fill="#C77000"/>
<path d="M84.7275 87.6648C85.477 87.7494 86.1924 87.5123 86.9078 87.3599C87.6572 87.1905 88.3897 87.0212 89.1562 86.9195C89.8034 86.8349 90.2974 86.53 90.2633 86.0388C90.2293 85.2767 90.1441 84.5315 90.0419 83.7862C89.9738 83.3459 89.6331 83.0918 89.1732 83.041C88.7474 83.0071 88.3215 82.9733 87.8957 82.9394C86.9248 82.9902 85.9709 83.0749 85.0171 83.0918C84.4209 83.1088 83.9099 83.5322 83.9951 84.108C84.0121 84.2266 84.0121 84.3451 83.978 84.4468C83.7566 85.3444 83.8247 86.2251 84.0291 87.1058C84.0973 87.4276 84.3868 87.6139 84.7275 87.6648Z" fill="#C77000"/>
<path d="M89.4796 78.214C88.0147 77.7398 86.5158 77.4688 84.9657 77.7059C84.3525 77.8076 84.0289 78.0447 84.0119 78.6544C83.9778 79.5859 83.9778 80.5344 84.0119 81.4659C84.0289 82.0417 84.2844 82.245 84.8635 82.245C85.4767 82.2619 86.107 82.245 86.7202 82.245C86.7202 82.2281 86.7202 82.2281 86.7202 82.2111C87.4186 82.2111 88.1169 82.245 88.8153 82.1942C89.667 82.1434 89.9225 81.8724 89.9736 81.0425C90.0076 80.3311 89.9906 79.6029 89.9906 78.8915C90.0076 78.5528 89.8032 78.3326 89.4796 78.214Z" fill="#C77000"/>
<path d="M81.5071 51.5894C80.7917 51.5385 80.6725 51.6402 80.6895 52.3515C80.6895 54.4009 80.7065 56.4502 80.7065 58.4826C80.7065 58.8383 80.6895 59.177 80.6554 59.5327C80.6214 59.8715 80.417 60.0747 80.0763 60.1424C79.8889 60.1763 79.7016 60.1763 79.5142 60.1763C78.3048 60.1763 78.1515 60.0239 78.1515 58.8383C78.1515 56.789 78.1515 54.7396 78.1515 52.7072C78.1515 51.6402 78.1174 51.6232 77.0443 51.6063C76.4311 51.5894 76.3289 51.691 76.3289 52.3007C76.3289 54.5025 76.346 56.6873 76.346 58.8891C76.346 60.007 76.1416 60.2102 75.0174 60.1933C73.9954 60.1933 73.808 60.007 73.808 58.9907C73.808 56.9075 73.808 54.8243 73.808 52.7411C73.808 52.5039 73.7739 52.2838 73.7569 52.0467C73.7399 51.8095 73.6036 51.6571 73.3651 51.6402C73.0926 51.6063 72.8371 51.5894 72.5646 51.6063C71.9854 51.6063 71.9173 51.691 71.9173 52.2499C71.9173 53.5202 71.9173 54.7904 71.9173 56.0437C71.9173 56.1962 71.8832 56.3486 71.8662 56.4841C71.8662 57.7205 71.8662 58.9569 71.8662 60.1763C71.8832 60.3287 71.9003 60.4981 71.9173 60.6505C71.9514 61.4635 71.9173 62.2765 72.0025 63.0894C72.1558 64.5968 73.2459 65.8332 74.7619 65.9518C76.3971 66.0873 78.0493 66.0703 79.6845 65.9348C80.8428 65.8501 81.7285 65.1049 82.1373 63.9871C82.3417 63.4282 82.4439 62.7846 82.4439 62.1918C82.478 58.9907 82.461 55.7727 82.461 52.5717C82.4439 51.691 82.4099 51.6571 81.5071 51.5894Z" fill="#FECB50"/>
<path d="M91.1645 87.3768C90.6535 87.5293 90.1596 87.6986 89.6656 87.8341C89.1376 87.9696 88.5925 88.1051 88.0645 88.1729C87.5875 88.2406 87.1106 88.2067 86.6337 88.2576C85.9523 88.3253 85.5605 88.7318 85.5605 89.3923C85.5605 89.9682 85.6287 90.544 85.6968 91.1029C85.799 91.8482 86.293 92.5595 87.0595 92.6103C87.1106 92.6103 87.1617 92.7119 87.2298 92.7627C88.1156 92.7627 89.0013 92.7627 89.904 92.7627C89.9892 92.7119 90.0744 92.6273 90.1766 92.6103C90.909 92.441 91.4541 92.0514 91.6074 91.2892C91.6926 90.8489 91.7777 90.3916 91.7948 89.9343C91.8288 89.223 91.7948 88.5116 91.7777 87.8003C91.7437 87.614 91.3178 87.326 91.1645 87.3768Z" fill="#FECB50"/>
<path d="M91.0969 77.2994C91.3694 77.2994 91.4546 77.1301 91.4716 76.8929C91.5057 76.351 91.5738 75.809 91.5738 75.267C91.642 71.8966 91.6931 68.5262 91.7442 65.1557C91.7271 65.1557 91.7101 65.1557 91.6931 65.1557C91.6931 64.7323 91.6931 64.292 91.6931 63.8685C91.676 60.4134 91.7271 56.9414 91.4716 53.4863C91.4035 52.5209 91.165 52.1821 90.2452 51.8942C89.3084 51.6063 88.3545 51.5555 87.4007 51.7079C86.1402 51.8942 85.3567 52.6225 84.999 53.8419C84.6242 55.1122 84.5902 56.4163 84.5391 57.7035C84.4369 61.0401 84.3687 64.3766 84.3176 67.7132C84.2836 70.2029 84.2495 72.7096 84.522 75.1993C84.6413 76.2324 84.8968 76.605 85.9188 76.8421C87.6221 77.2317 89.3595 77.2486 91.0969 77.2994Z" fill="#FECB50"/>
<path d="M80.6047 68.2044C80.6047 67.9503 80.5707 67.6963 80.5366 67.4422C80.4855 67.0865 80.2811 66.9172 79.9234 66.9002C79.5316 66.8833 79.1228 66.8494 78.7311 66.8494C77.2662 66.8664 75.7843 66.8833 74.3194 66.9341C73.6211 66.968 73.4678 67.1882 73.4678 67.8656C73.4678 69.7117 73.4678 71.5579 73.4848 73.404C73.4848 73.9968 73.5359 74.5895 73.57 75.1823C73.587 75.4872 73.7403 75.6566 74.0639 75.7074C74.8645 75.8429 75.648 75.9953 76.4316 76.1477C77.6069 76.3679 78.7992 76.5881 79.9745 76.7913C80.5025 76.876 80.6558 76.7236 80.6558 76.1985C80.6558 74.8267 80.6558 73.4548 80.6558 72.0829C80.6388 72.0829 80.6047 72.0829 80.5877 72.0829C80.6047 70.7957 80.6218 69.5085 80.6047 68.2044Z" fill="#FECB50"/>
<path d="M73.2632 76.9946C73.2802 77.672 73.2632 78.3495 73.2632 79.0101C73.2632 79.6706 73.2632 80.365 73.2632 81.0255C73.2632 81.1272 73.2973 81.2457 73.3484 81.3473C73.5528 81.8555 74.0467 81.8555 74.4555 81.9063C75.0176 81.974 75.5968 81.9909 76.1589 81.9909C77.4193 81.974 78.6798 81.9571 79.9232 81.9232C80.1617 81.9232 80.4342 81.8385 80.6386 81.72C80.7749 81.6353 80.9282 81.432 80.9282 81.2796C80.9623 80.4497 80.9623 79.6367 80.9282 78.8068C80.9112 78.3665 80.8771 77.8922 80.4683 77.6551C80.1106 77.4349 79.6848 77.2825 79.276 77.1809C78.7139 77.0454 78.1347 76.9776 77.5556 76.876C76.8232 76.7405 76.0907 76.5881 75.3583 76.4695C74.9325 76.4018 74.4896 76.3679 74.0638 76.3171C73.672 76.2663 73.2462 76.5203 73.2632 76.9946Z" fill="#FECB50"/>
<path d="M73.1779 86.5639C73.1949 87.1059 73.4163 87.3091 73.9784 87.3091C74.7449 87.3261 75.4944 87.3091 76.2609 87.3091C76.2609 87.3261 76.2609 87.3599 76.2609 87.3769C77.2488 87.3261 78.2197 87.2922 79.2077 87.2075C80.1956 87.1228 80.7577 86.6825 80.911 85.7001C81.0302 84.921 81.0302 84.108 81.0302 83.312C81.0302 82.7362 80.8599 82.6007 80.2978 82.5837C79.0884 82.5499 77.8791 82.499 76.6697 82.4652C75.6818 82.4482 74.7109 82.4482 73.7229 82.4652C73.2971 82.4652 73.1779 82.5837 73.1779 83.0072C73.1438 84.1927 73.1608 85.3783 73.1779 86.5639Z" fill="#FECB50"/>
<path d="M80.1279 87.9019C79.2932 87.9019 78.4416 87.9019 77.6069 87.9019C77.6069 87.9188 77.6069 87.9527 77.6069 87.9696C76.4657 87.9696 75.3245 87.9696 74.1832 87.9696C73.7233 87.9696 73.3316 88.2575 73.2805 88.6979C73.1442 89.6633 73.059 90.6287 73.5019 91.5433C73.6552 91.8481 73.9618 92.2038 74.2854 92.2885C74.8305 92.4579 75.4437 92.4917 76.0228 92.5256C77.3003 92.5764 78.5778 92.5426 79.8383 92.3224C80.2641 92.2546 80.7922 91.8312 80.9114 91.4078C81.1839 90.4763 81.201 89.5278 80.9795 88.5793C80.8262 87.9696 80.7581 87.9019 80.1279 87.9019Z" fill="#FECB50"/>
<path d="M86.4297 87.6648C87.1791 87.7494 87.8945 87.5123 88.6099 87.3599C89.3594 87.1905 90.0918 87.0212 90.8583 86.9195C91.5056 86.8349 91.9995 86.53 91.9655 86.0388C91.9314 85.2767 91.8463 84.5315 91.7441 83.7862C91.6759 83.3459 91.3353 83.0918 90.8754 83.041C90.4495 83.0071 90.0237 82.9733 89.5979 82.9394C88.627 82.9902 87.6731 83.0749 86.7192 83.0918C86.1231 83.1088 85.6121 83.5322 85.6972 84.108C85.7143 84.2266 85.7143 84.3451 85.6802 84.4468C85.4588 85.3444 85.5269 86.2251 85.7313 87.1058C85.7994 87.4276 86.089 87.6139 86.4297 87.6648Z" fill="#FECB50"/>
<path d="M91.1817 78.214C89.7169 77.7398 88.2179 77.4688 86.6679 77.7059C86.0547 77.8076 85.7311 78.0447 85.714 78.6544C85.68 79.5859 85.68 80.5344 85.714 81.4659C85.7311 82.0417 85.9866 82.245 86.5657 82.245C87.1789 82.2619 87.8091 82.245 88.4223 82.245C88.4223 82.2281 88.4223 82.2281 88.4223 82.2111C89.1207 82.2111 89.8191 82.245 90.5174 82.1942C91.3691 82.1434 91.6246 81.8724 91.6757 81.0425C91.7098 80.3311 91.6927 79.6029 91.6927 78.8915C91.7098 78.5528 91.5054 78.3326 91.1817 78.214Z" fill="#FECB50"/>
<path d="M266.088 72.1846C266.088 94.7783 247.817 113.104 225.252 113.104C202.704 113.087 184.416 94.7783 184.416 72.1846C184.416 49.5909 202.704 31.2652 225.252 31.2652C247.8 31.2652 266.088 49.5909 266.088 72.1846Z" fill="#989897"/>
<path d="M261.929 72.1846C261.929 94.7783 243.658 113.104 221.094 113.104C198.563 113.087 180.274 94.7783 180.274 72.1846C180.274 49.5909 198.563 31.2652 221.11 31.2652C243.658 31.2652 261.929 49.5909 261.929 72.1846Z" fill="#D9D9D9"/>
<path d="M252.278 72.1845C252.278 89.4262 238.317 103.416 221.11 103.416C203.887 103.416 189.942 89.4262 189.942 72.1845C189.942 54.9429 203.887 40.9361 221.11 40.9361C238.317 40.9361 252.278 54.9259 252.278 72.1845Z" fill="#838382"/>
<path d="M252.278 72.1846C252.278 88.4608 239.111 101.655 222.868 101.655C206.625 101.655 193.458 88.4608 193.458 72.1846C193.458 55.9083 206.625 42.7145 222.868 42.7145C239.111 42.6976 252.278 55.8914 252.278 72.1846Z" fill="#F2F2F2"/>
<path d="M190.974 80.2296L182.489 85.48C181.052 81.3135 180.274 76.8422 180.274 72.1676C180.274 71.812 180.274 71.4732 180.291 71.1345L190.855 64.5799C190.247 67.0188 189.926 69.5424 189.926 72.1507C189.926 74.9622 190.297 77.6552 190.974 80.2296Z" fill="#F8F8F8"/>
<path d="M250.25 43.5274L241.765 48.7778C237.877 45.3227 233.111 42.833 227.871 41.6644L238.452 35.1268C242.88 37.21 246.869 40.0723 250.25 43.5274Z" fill="#F8F8F8"/>
<path d="M196.062 90.7981L187.83 95.8961C186.546 94.0839 185.396 92.17 184.416 90.1545L192.681 85.0396C193.611 87.072 194.743 89.0028 196.062 90.7981Z" fill="#838382"/>
<path d="M257.163 52.9613L248.931 58.0762C247.917 56.0607 246.7 54.1807 245.28 52.4701L253.546 47.3552C254.898 49.1166 256.098 50.9797 257.163 52.9613Z" fill="#838382"/>
<path d="M214.349 102.671L203.769 109.225C200.118 107.515 196.788 105.279 193.83 102.62L202.501 97.251C205.966 99.8254 209.972 101.705 214.349 102.671Z" fill="#C0C0C0"/>
<path d="M261.93 72.1676C261.93 72.5233 261.93 72.862 261.913 73.2008L251.281 79.7892C251.924 77.3503 252.278 74.7928 252.278 72.1676C252.278 70.3046 252.109 68.4923 251.771 66.714L260.476 61.3281C261.423 64.7832 261.93 68.4246 261.93 72.1676Z" fill="#C0C0C0"/>
<path d="M211.091 92.4652V83.391H204.223V78.9817L211.091 78.6622V75.4032H204.223V71.0578L211.091 70.7383V51.887H223.692C225.792 51.887 227.746 52.1213 229.552 52.5899C231.4 53.0159 232.996 53.7188 234.34 54.6987C235.727 55.6359 236.819 56.8501 237.617 58.3411C238.415 59.8322 238.814 61.6002 238.814 63.6451C238.814 65.7326 238.394 67.5218 237.554 69.0129C236.756 70.504 235.664 71.7181 234.277 72.6554C232.891 73.5926 231.274 74.2955 229.426 74.7642C227.62 75.1902 225.708 75.4032 223.692 75.4032H219.849V78.5983H234.592V83.391H219.849V92.4652H211.091ZM219.849 70.6744H223.314C225.498 70.6744 227.2 70.0993 228.418 68.949C229.636 67.7988 230.245 66.2225 230.245 64.2202C230.245 61.9197 229.636 60.2795 228.418 59.2997C227.2 58.2772 225.498 57.766 223.314 57.766H219.849V70.6744Z" fill="#919191"/>
<path d="M213.086 92.4652V83.391H206.218V78.9817L213.086 78.6622V75.4032H206.218V71.0578L213.086 70.7383V51.887H225.687C227.787 51.887 229.741 52.1213 231.547 52.5899C233.395 53.0159 234.991 53.7188 236.336 54.6987C237.722 55.6359 238.814 56.8501 239.612 58.3411C240.41 59.8322 240.809 61.6002 240.809 63.6451C240.809 65.7326 240.389 67.5218 239.549 69.0129C238.751 70.504 237.659 71.7181 236.273 72.6554C234.886 73.5926 233.269 74.2955 231.421 74.7642C229.615 75.1902 227.703 75.4032 225.687 75.4032H221.844V78.5983H236.588V83.391H221.844V92.4652H213.086ZM221.844 70.6744H225.309C227.493 70.6744 229.195 70.0993 230.413 68.949C231.631 67.7988 232.24 66.2225 232.24 64.2202C232.24 61.9197 231.631 60.2795 230.413 59.2997C229.195 58.2772 227.493 57.766 225.309 57.766H221.844V70.6744Z" fill="#C9C9C9"/>
<defs>
<linearGradient id="paint0_linear_3801_21707" x1="0" y1="0" x2="329.734" y2="89.8146" gradientUnits="userSpaceOnUse">
<stop stop-color="#E3EEFF"/>
<stop offset="0.526042" stop-color="#E4F6E4"/>
<stop offset="1" stop-color="#FFEEE4"/>
</linearGradient>
</defs>
</svg>
